<svg id="Слой_1" data-name="Слой 1" xmlns="http://www.w3.org/2000/svg" viewBox="0 0 481.52 481.52"><defs><style>.cls-1,.cls-2{fill:none;stroke:#000;stroke-miterlimit:10;stroke-width:5px;}.cls-2{stroke-linecap:round;}</style></defs><circle class="cls-1" cx="240.43" cy="220.47" r="107.41"/><path class="cls-2" d="M201,294.67a84,84,0,1,1,81.42-1.44"/><circle cx="240.43" cy="223.48" r="9.64"/><line class="cls-2" x1="199.19" y1="147.32" x2="207.84" y2="162.28"/><line class="cls-2" x1="168.27" y1="178.57" x2="182.57" y2="186.89"/><line class="cls-2" x1="156.43" y1="220.47" x2="173.92" y2="220.47"/><line class="cls-2" x1="169.82" y1="263.15" x2="182.9" y2="255.39"/><line class="cls-2" x1="201.01" y1="294.67" x2="207.51" y2="281.33"/><line class="cls-2" x1="278.96" y1="147.32" x2="270.32" y2="162.28"/><line class="cls-2" x1="309.89" y1="178.57" x2="295.59" y2="186.89"/><line class="cls-2" x1="321.73" y1="220.47" x2="304.24" y2="220.47"/><line class="cls-2" x1="308.34" y1="263.15" x2="295.26" y2="255.39"/><line class="cls-2" x1="281.14" y1="293.67" x2="274.65" y2="280.33"/><line class="cls-2" x1="240.43" y1="136.48" x2="240.43" y2="151.97"/><line class="cls-2" x1="219.48" y1="302.61" x2="262.37" y2="302.61"/><path d="M237.1,168.73l-2.24,52.41H246l-3.75-52.53C242,164.53,237.28,164.64,237.1,168.73Z"/></svg>