<svg id="Слой_1" data-name="Слой 1" xmlns="http://www.w3.org/2000/svg" viewBox="0 0 481.52 481.52"><defs><style>.cls-1{fill:none;stroke:#000;stroke-miterlimit:10;stroke-width:5px;}</style></defs><ellipse class="cls-1" cx="240.43" cy="133.41" rx="78.44" ry="21.47"/><path class="cls-1" d="M307.9,279.86c7,4.84,11,10.5,11,16.53,0,17.9-35.12,32.41-78.44,32.41S162,314.29,162,296.39c0-7.32,5.89-14.08,15.81-19.51"/><path class="cls-1" d="M279.43,268a80.85,80.85,0,0,1,18.66,7.2"/><path class="cls-1" d="M237.24,263c.91,0,1.82,0,2.74,0a135.57,135.57,0,0,1,24.85,2.24"/><path class="cls-1" d="M194.3,270.18a146.32,146.32,0,0,1,25.43-5.05"/><line class="cls-1" x1="318.87" y1="133.41" x2="318.87" y2="297.28"/><line class="cls-1" x1="161.99" y1="133.41" x2="161.99" y2="297.28"/><line class="cls-1" x1="240.73" y1="126.37" x2="240.73" y2="220.9"/><ellipse class="cls-1" cx="266.56" cy="220.9" rx="25.57" ry="13.76"/><ellipse class="cls-1" cx="214.3" cy="220.9" rx="25.57" ry="13.76"/></svg>