<svg id="Слой_1" data-name="Слой 1" xmlns="http://www.w3.org/2000/svg" viewBox="0 0 481.52 481.52"><path d="M242.06,128c6.55,0,13.09.07,19.63,0,4.55-.07,7.46,2.32,9.28,6.11a11.1,11.1,0,0,1-5.52,14.94,1.27,1.27,0,0,0-.91,1.41,32.68,32.68,0,0,0,.67,6c.94,3.17,3.55,4.73,6.59,5.68a94.37,94.37,0,0,1,28,14.3,97.21,97.21,0,0,1,37.54,58.6A95.32,95.32,0,0,1,339,264.41,97.68,97.68,0,0,1,298,334.56a94.47,94.47,0,0,1-27,13.28,87.55,87.55,0,0,1-21.25,4,105.92,105.92,0,0,1-13.68.19,131.46,131.46,0,0,1-15.88-2.4,89.5,89.5,0,0,1-28.69-11.55,97.09,97.09,0,0,1-31.42-30.63,94.87,94.87,0,0,1-11.31-24.56,97.45,97.45,0,0,1,44.43-112.25,99,99,0,0,1,20.1-8.79,8.86,8.86,0,0,0,6.32-8.22,1.82,1.82,0,0,1,0-.33c.3-2.33-.16-3.93-2.56-5.34-4-2.34-5.49-6.38-4.78-11a10.79,10.79,0,0,1,7.27-8.74,5.15,5.15,0,0,1,1.72-.23h20.72Zm.09,7c-6.14,0-12.28,0-18.42,0a3.77,3.77,0,0,0-4,3.49c-.1,2.27,1.29,3.75,3.72,4a3.85,3.85,0,0,1,3.72,4c0,2.49.14,5,0,7.46-.45,6.84-3.75,11.8-10.13,14.49-4.66,2-9.52,3.49-14.09,5.63a85.9,85.9,0,0,0-32.16,26.12,89,89,0,0,0-18.24,47.23,90.21,90.21,0,0,0,1.55,25.72A86.84,86.84,0,0,0,161,293.63,89.88,89.88,0,0,0,270.76,340a85.93,85.93,0,0,0,26.38-14.16c21.74-17.33,33.29-40,34.73-67.74a85.53,85.53,0,0,0-3.71-29,87.14,87.14,0,0,0-9.36-21c-12-19.37-29-32.37-50.69-39.31a14.83,14.83,0,0,1-10.63-12.25,63.68,63.68,0,0,1-.41-9.39c-.05-3,1.19-4.3,4.19-4.62a3.74,3.74,0,0,0-.8-7.44C254.36,135.06,248.25,135.07,242.15,135.07Z"/><path d="M262.48,329.82c-8.31-.22-14.76-3.17-19.64-9.32-.56-.7-.84-.76-1.44,0-5.83,7.13-13.36,10.23-22.48,9s-15.31-6.35-18.93-14.72a2.46,2.46,0,0,0-1.27-1.17c-7.54-2.81-12.5-8-14.55-15.83a23.21,23.21,0,0,1-.57-3.23,1.73,1.73,0,0,0-1.1-1.48,20.71,20.71,0,0,1-6.75-31.68,1.44,1.44,0,0,0,.14-1.84q-5.74-11.91,2.17-22.54a2.66,2.66,0,0,0,.51-1.67,23.46,23.46,0,0,1,13.7-23.73c1.88-.89,1.88-.89,1.49-2.88a16.09,16.09,0,0,1,9.31-17.47,17,17,0,0,1,6.59-1.41A1.93,1.93,0,0,0,211,189c4.69-7,11.22-9.93,19.49-8.7a17.46,17.46,0,0,1,10.82,6.16c.63.73.94.71,1.57,0A18.78,18.78,0,0,1,273,188.81a2.05,2.05,0,0,0,1.93,1.08,16.05,16.05,0,0,1,15.85,16.74,11.41,11.41,0,0,1-.48,3c-.31,1,.1,1.29.88,1.6a22.18,22.18,0,0,1,9.47,7,23.4,23.4,0,0,1,5,16.89,3,3,0,0,0,.54,1.88c5.19,7,5.95,14.48,2.2,22.36a1.74,1.74,0,0,0,.26,2.2c8.2,10,4.9,25.33-6.71,31.35a2.33,2.33,0,0,0-1.39,2c-1.31,9.29-6.46,15.47-15.24,18.7a2.16,2.16,0,0,0-1.08,1.09,23.47,23.47,0,0,1-17.39,14.56A37.64,37.64,0,0,1,262.48,329.82Zm-.81-7.42a32.46,32.46,0,0,0,4.33-.6c6-1.64,10-5.38,11.73-11.41a4.5,4.5,0,0,1,3.78-3.45,14.08,14.08,0,0,0,4.05-1.57c5.17-3,7.68-7.63,7.71-13.59,0-2.71.68-3.72,3.16-4.56a13.3,13.3,0,0,0,4.63-22.77c-2.43-2.15-2.59-3.82-.58-6.4a13.1,13.1,0,0,0-1.06-17.3,4.88,4.88,0,0,1-1.52-4.94,13.48,13.48,0,0,0,0-6.19A15.57,15.57,0,0,0,287.69,218a17,17,0,0,0-3.6-.86c-2.43-.33-4.76-3.14-2.42-6.44a7.94,7.94,0,0,0,.12-9.52,8.77,8.77,0,0,0-8.88-3.71c-3,.6-4.23-.07-5.39-3A11.31,11.31,0,0,0,253.68,188a10.75,10.75,0,0,0-7.74,9.51,10.49,10.49,0,0,1-.46,2.46,3.67,3.67,0,0,1-3.83,2.16,3.63,3.63,0,0,1-3.14-2.92,43.27,43.27,0,0,0-.8-4.29c-1.67-5.48-8.24-8.78-13.69-7a11.34,11.34,0,0,0-7.48,7c-.92,2.37-2.52,3.13-5,2.57a8.58,8.58,0,0,0-10.21,10.37,13,13,0,0,0,1.59,3.32,3.79,3.79,0,0,1-2.78,5.92,15.51,15.51,0,0,0-9.83,5,14.94,14.94,0,0,0-4,13.11c.39,2.26.18,4-1.56,5.76a13,13,0,0,0-.95,17c2,2.62,1.87,4.3-.6,6.5a12.59,12.59,0,0,0-4.42,12.08,13.09,13.09,0,0,0,9.15,10.65c2.33.83,3.07,1.89,3.13,4.39a17.45,17.45,0,0,0,.47,4.34,14.88,14.88,0,0,0,11.85,11.13,3.78,3.78,0,0,1,3,2.64,24.65,24.65,0,0,0,1.49,3.86c3.32,6.32,9.63,9.34,16.62,8.62a14.62,14.62,0,0,0,13-10,40.22,40.22,0,0,0,1.15-5.76,3.62,3.62,0,0,1,4.83-2.62,3.84,3.84,0,0,1,2.5,3.41,23.68,23.68,0,0,0,.85,4.72A15.45,15.45,0,0,0,261.67,322.4Z"/><path d="M238.36,253.06q0-19.29,0-38.6c0-1.81.47-3.32,2.23-4.16a3.68,3.68,0,0,1,5.09,2.48,8.32,8.32,0,0,1,.17,1.73q0,38.49,0,77c0,2.37-.73,3.59-2.5,4.3a3.61,3.61,0,0,1-4.79-2.51,9.85,9.85,0,0,1-.2-2.17Q238.36,272.09,238.36,253.06Z"/><path d="M223.33,281.05a3.55,3.55,0,0,1-3.19,3.68c-2.3.34-2.24.31-1.49,2.41s1.37,4.05.79,6.2a3.67,3.67,0,0,1-7.2-.8c-.24-3.39-1.68-6-5-7.21a13.21,13.21,0,0,0-2.89-.57,3.76,3.76,0,0,1-3.45-4,3.82,3.82,0,0,1,4.14-3.38,13.78,13.78,0,0,1,6,1.55,1.87,1.87,0,0,0,2,0,14.28,14.28,0,0,1,6.22-1.56A3.68,3.68,0,0,1,223.33,281.05Z"/><path d="M266.35,285.12c-.79-.14-1.45-.27-2.13-.37a3.59,3.59,0,0,1-3.31-4.1,3.69,3.69,0,0,1,3.95-3.3,14.62,14.62,0,0,1,6.32,1.58,1.7,1.7,0,0,0,1.83,0,14,14,0,0,1,6-1.6,3.84,3.84,0,0,1,4.29,3.45,3.68,3.68,0,0,1-3.54,3.94c-3.29.27-5.83,1.62-7.11,4.78a11.79,11.79,0,0,0-.62,3,3.71,3.71,0,0,1-4,3.52,3.79,3.79,0,0,1-3.47-3.94,14.7,14.7,0,0,1,1.46-6A8.27,8.27,0,0,0,266.35,285.12Z"/><path d="M225.32,229a14,14,0,0,1,.7,1.74,39.76,39.76,0,0,1,1.09,5.11,3.71,3.71,0,1,1-7.41.39c-.32-4.41-2.87-7.09-7.32-7.55-1.6-.17-2.93-.68-3.6-2.24a3.72,3.72,0,0,1,3.74-5.24,14.18,14.18,0,0,1,6.21,1.61,1.6,1.6,0,0,0,1.71,0,14.82,14.82,0,0,1,6.43-1.62,3.77,3.77,0,0,1,3.83,2.67,3.67,3.67,0,0,1-1.88,4.35,7.48,7.48,0,0,1-1.58.41Z"/><path d="M258.7,228.94c-.61-.11-1.28-.24-1.95-.34a3.61,3.61,0,0,1-3.32-4.1,3.7,3.7,0,0,1,4.05-3.3,14.61,14.61,0,0,1,6.21,1.58,1.71,1.71,0,0,0,1.82,0,14,14,0,0,1,6-1.6,3.82,3.82,0,0,1,4.3,3.44,3.73,3.73,0,0,1-3.53,4c-3.25.19-5.77,1.55-7.07,4.65a10.71,10.71,0,0,0-.64,3,3.76,3.76,0,0,1-3.88,3.64,3.65,3.65,0,0,1-3.54-3.95,49.32,49.32,0,0,1,1.36-5.93c.06-.24.2-.47.28-.7C258.79,229.25,258.75,229.17,258.7,228.94Z"/><path d="M287,261.46c.14,2.47-.74,3.9-2.75,4.49a3.58,3.58,0,0,1-4.4-2.41c-.29-1.09-.26-2.26-.6-3.33a7.45,7.45,0,0,0-7.09-5.36,3.73,3.73,0,1,1,.13-7.45c6,.25,10.52,3,13.22,8.41a36.78,36.78,0,0,1,1.78,5.56Z"/><path d="M197.25,261.48a14.94,14.94,0,0,1,14.6-14.09,3.71,3.71,0,0,1,4,3.59,3.6,3.6,0,0,1-3.71,3.86,7.54,7.54,0,0,0-7.42,7.18,3.77,3.77,0,0,1-2.23,3.72,3.66,3.66,0,0,1-5.23-3.27C197.24,262.14,197.25,261.81,197.25,261.48Z"/></svg>