<svg id="Слой_1" data-name="Слой 1" xmlns="http://www.w3.org/2000/svg" viewBox="0 0 481.52 481.52"><defs><style>.cls-1{fill:none;stroke:#ff7f00;stroke-miterlimit:10;stroke-width:5px;}</style></defs><g id="svg_6" data-name="svg 6"><path id="svg_5" data-name="svg 5" class="cls-1" d="M123.75,240.89c0,8.39,7.39,15.33,16.23,15.33H309.52l-47.39,58.56a12.77,12.77,0,0,0-2.89,10.74,15,15,0,0,0,6.52,9.56,17.11,17.11,0,0,0,9.56,2.75,16.89,16.89,0,0,0,13.19-6l66.22-82.27.14-.13a8.07,8.07,0,0,0,1.16-1.84,17.21,17.21,0,0,0,1.6-4.32,14.11,14.11,0,0,0,.14-2.36,12.7,12.7,0,0,0-.14-2.23,14.2,14.2,0,0,0-1.45-4.32.13.13,0,0,0-.15-.13,11.41,11.41,0,0,0-1.16-1.7c-.14-.13-.14-.27-.29-.4l-66.22-82.27a17,17,0,0,0-13.19-6.16,16.65,16.65,0,0,0-9.41,2.76,15,15,0,0,0-6.52,9.56,13.7,13.7,0,0,0,2.89,10.87l47.39,58.56H140C131.28,225.43,123.75,232.51,123.75,240.89Z"/></g></svg>