<?xml version="1.0" encoding="utf-8"?>
<!-- Generator: Adobe Illustrator 16.0.0, SVG Export Plug-In . SVG Version: 6.00 Build 0)  -->
<!DOCTYPE svg PUBLIC "-//W3C//DTD SVG 1.1 Tiny//EN" "http://www.w3.org/Graphics/SVG/1.1/DTD/svg11-tiny.dtd">
<svg version="1.1" baseProfile="tiny" id="Layer_1" xmlns="http://www.w3.org/2000/svg" xmlns:xlink="http://www.w3.org/1999/xlink"
	 x="0px" y="0px" width="24px" height="24px" viewBox="0 0 24 24" xml:space="preserve">
<g>
	<g>
		<g>
			<path d="M23,9.624h-1.75C20.839,7.896,19.546,6.621,18,6.621H4c-1.875,0-3.4,1.863-3.4,4.153v2.451c0,2.29,1.525,4.153,3.4,4.153
				h14c1.545,0,2.838-1.272,3.25-3H23c0.221,0,0.4-0.179,0.4-0.399v-3.956C23.4,9.803,23.221,9.624,23,9.624z M18,16.58H4
				c-1.434,0-2.601-1.506-2.601-3.354v-2.451c0-1.849,1.167-3.354,2.601-3.354h14c1.245,0,2.287,1.137,2.539,2.647v3.863
				C20.287,15.443,19.245,16.58,18,16.58z M22.6,13.58h-1.229c0.008-0.119,0.029-0.233,0.029-0.354v-2.451
				c0-0.12-0.021-0.233-0.029-0.351H22.6V13.58z"/>
		</g>
	</g>
	<g>
		<path d="M16,15.4c-0.221,0-0.4-0.179-0.4-0.4V9c0-0.221,0.179-0.4,0.4-0.4s0.4,0.179,0.4,0.4v6C16.4,15.221,16.221,15.4,16,15.4z"
			/>
	</g>
	<g>
		<path d="M13,15.4c-0.221,0-0.4-0.179-0.4-0.4V9c0-0.221,0.179-0.4,0.4-0.4s0.4,0.179,0.4,0.4v6C13.4,15.221,13.221,15.4,13,15.4z"
			/>
	</g>
	<g>
		<path d="M10,15.4c-0.221,0-0.4-0.179-0.4-0.4V9c0-0.221,0.179-0.4,0.4-0.4s0.4,0.179,0.4,0.4v6C10.4,15.221,10.221,15.4,10,15.4z"
			/>
	</g>
	<g>
		<path d="M7.021,15.4c-0.221,0-0.4-0.179-0.4-0.4V9c0-0.221,0.179-0.4,0.4-0.4s0.4,0.179,0.4,0.4v6
			C7.42,15.221,7.241,15.4,7.021,15.4z"/>
	</g>
	<g>
		<path d="M4,15.4c-0.221,0-0.4-0.179-0.4-0.4V9c0-0.221,0.179-0.4,0.4-0.4S4.4,8.779,4.4,9v6C4.4,15.221,4.221,15.4,4,15.4z"/>
	</g>
</g>
</svg>
