<svg id="Слой_1" data-name="Слой 1" xmlns="http://www.w3.org/2000/svg" viewBox="0 0 481.52 481.52"><defs><style>.cls-1{fill:none;stroke:#000;stroke-miterlimit:10;stroke-width:5px;}</style></defs><path class="cls-1" d="M201.94,173.46a77.25,77.25,0,0,1,75.55-1.11"/><path class="cls-1" d="M174.25,279.49a77.25,77.25,0,0,1,1.15-80.44"/><path class="cls-1" d="M280.42,306.4a77.27,77.27,0,0,1-77.65,1"/><path class="cls-1" d="M308.4,203.13a77.28,77.28,0,0,1-.17,74.48"/><circle class="cls-1" cx="240.7" cy="240.21" r="23.23"/><circle class="cls-1" cx="240.7" cy="240.21" r="40.44"/><rect class="cls-1" x="87.42" y="220.23" width="77.66" height="40.06" rx="6.43" transform="translate(366.51 114.01) rotate(90)"/><rect x="121.96" y="217.8" width="8.58" height="8.58" transform="translate(348.34 95.84) rotate(90)"/><rect x="121.96" y="235.83" width="8.58" height="8.58" transform="translate(366.37 113.87) rotate(90)"/><rect x="121.96" y="254.14" width="8.58" height="8.58" transform="translate(384.68 132.18) rotate(90)"/><line class="cls-1" x1="126.34" y1="189.85" x2="126.34" y2="202.27"/><line class="cls-1" x1="126.34" y1="276.85" x2="126.34" y2="290.27"/><line class="cls-1" x1="166.91" y1="216.68" x2="145.62" y2="216.68"/><line class="cls-1" x1="145.4" y1="262.79" x2="166.46" y2="262.79"/><rect class="cls-1" x="316.44" y="219.98" width="77.66" height="40.06" rx="6.43" transform="translate(115.26 595.28) rotate(-90)"/><rect x="350.98" y="253.89" width="8.58" height="8.58" transform="translate(97.09 613.45) rotate(-90)"/><rect x="350.98" y="235.86" width="8.58" height="8.58" transform="translate(115.12 595.42) rotate(-90)"/><rect x="350.98" y="217.55" width="8.58" height="8.58" transform="translate(133.43 577.11) rotate(-90)"/><line class="cls-1" x1="355.18" y1="290.42" x2="355.18" y2="278"/><line class="cls-1" x1="355.18" y1="203.42" x2="355.18" y2="190"/><line class="cls-1" x1="314.61" y1="263.59" x2="335.9" y2="263.59"/><line class="cls-1" x1="336.12" y1="217.48" x2="315.06" y2="217.48"/><rect class="cls-1" x="202.07" y="335.95" width="77.66" height="40.06" rx="6.43"/><rect x="218.44" y="351.7" width="8.58" height="8.58"/><rect x="236.47" y="351.7" width="8.58" height="8.58"/><rect x="254.78" y="351.7" width="8.58" height="8.58"/><line class="cls-1" x1="190.49" y1="355.89" x2="202.91" y2="355.89"/><line class="cls-1" x1="277.49" y1="355.89" x2="290.91" y2="355.89"/><line class="cls-1" x1="217.32" y1="315.33" x2="217.32" y2="336.61"/><line class="cls-1" x1="263.43" y1="336.83" x2="263.43" y2="315.77"/><rect class="cls-1" x="201.67" y="105.5" width="77.66" height="40.06" rx="6.43" transform="translate(481.01 251.07) rotate(180)"/><rect x="254.38" y="121.24" width="8.58" height="8.58" transform="translate(517.35 251.07) rotate(180)"/><rect x="236.35" y="121.24" width="8.58" height="8.58" transform="translate(481.28 251.07) rotate(180)"/><rect x="218.04" y="121.24" width="8.58" height="8.58" transform="translate(444.67 251.07) rotate(180)"/><line class="cls-1" x1="290.91" y1="125.63" x2="278.49" y2="125.63"/><line class="cls-1" x1="203.91" y1="125.63" x2="190.49" y2="125.63"/><line class="cls-1" x1="264.08" y1="166.19" x2="264.08" y2="144.91"/><line class="cls-1" x1="217.97" y1="144.69" x2="217.97" y2="165.75"/><ellipse class="cls-1" cx="303.36" cy="177.85" rx="15.08" ry="18.21" transform="translate(-33.46 278.89) rotate(-47.08)"/><ellipse class="cls-1" cx="298.72" cy="182.75" rx="22.49" ry="20.79" transform="translate(-45.23 248.57) rotate(-42.29)"/><line class="cls-1" x1="303.47" y1="176.56" x2="321.46" y2="159.37"/><ellipse class="cls-1" cx="179.58" cy="177.66" rx="18.21" ry="15.08" transform="translate(-72.31 196.73) rotate(-49.02)"/><ellipse class="cls-1" cx="184.64" cy="182.14" rx="20.79" ry="22.49" transform="translate(-74.71 180.43) rotate(-44.23)"/><line class="cls-1" x1="178.28" y1="177.6" x2="160.5" y2="160.2"/><ellipse class="cls-1" cx="178.7" cy="300.96" rx="15.08" ry="18.21" transform="translate(-165.7 238.51) rotate(-49.02)"/><ellipse class="cls-1" cx="183.18" cy="295.9" rx="22.49" ry="20.79" transform="translate(-154.48 211.66) rotate(-44.23)"/><line class="cls-1" x1="178.64" y1="302.26" x2="161.24" y2="320.04"/><ellipse class="cls-1" cx="302.57" cy="301.8" rx="18.21" ry="15.08" transform="translate(-123.69 332.32) rotate(-49.02)"/><ellipse class="cls-1" cx="297.51" cy="297.32" rx="20.79" ry="22.49" transform="translate(-123.06 291.82) rotate(-44.23)"/><line class="cls-1" x1="303.86" y1="301.86" x2="321.65" y2="319.26"/></svg>