<svg id="Слой_1" data-name="Слой 1" xmlns="http://www.w3.org/2000/svg" viewBox="0 0 481.52 481.52"><path d="M237.52,110.58c-5.89,1.17-12.14,6.15-14.78,11.83-1.62,3.41-2.59,8.28-2.13,10.62.2.91,0,1.42-.41,1.57a89.52,89.52,0,0,0-36.56,20l-2.79,2.59-7.31-7.32-7.31-7.36-1.17,1.42c-5.59,6.76-6.71,15.24-3,22.7a27.91,27.91,0,0,0,3.66,5.49l1.88,1.93-2,3.91c-5.58,10.56-9.8,25.59-9.8,35,0,5.69.92,5.23-11.22,5.23H133.93v1.93c0,4.22,2.84,10.11,6.75,13.87a23.69,23.69,0,0,0,15.08,6h2.39l1.68,5.18c3.4,10.46,10.25,22.14,18.48,31.63l2.49,2.85-7.21,7.26-7.21,7.21,1.42,1.27a20.46,20.46,0,0,0,13.56,5,20.1,20.1,0,0,0,14.57-5.79l1.78-1.78,5.48,2.69c11.22,5.59,21.13,8.23,34.23,9.24l4.67.36V326.8l1.68-.25a28,28,0,0,0,8.43-2.44,24.67,24.67,0,0,0,9.24-9.7c1.57-3.35,2.59-8.63,2.13-11-.2-1.17-.1-1.47.61-1.47a34.49,34.49,0,0,0,5.48-1.63A86.12,86.12,0,0,0,300,282.57l3.3-2.94,7.21,7.21,7.21,7.21,1.22-1.12c1.68-1.57,3.86-5.74,4.72-8.94,1.78-6.7.21-12.89-5-19.19l-2-2.39,2.58-5.18c5.49-10.91,9.09-24.12,9.15-33.46.05-6.09-1-5.59,11.22-5.59h10.61v-1.67c0-4.17-2.59-9.65-6.3-13.36a20.55,20.55,0,0,0-14.87-6.29h-3.15l-.56-2.19c-2.9-11.22-9.75-23.56-18.94-34l-3.05-3.5,7.31-7.32,7.32-7.31-1.53-1.32a27.75,27.75,0,0,0-10.76-4.82c-5.59-1-12.85,1.32-17.27,5.48l-2.18,2L281,141.2a78.08,78.08,0,0,0-17.11-6.55,91.54,91.54,0,0,0-18.54-2.79h-3.3V110l-1.12,0C240.31,110.12,238.79,110.33,237.52,110.58Zm32,65.3c-.25.51-6.75,10.16-14.37,21.48l-13.91,20.57,12.84.25,12.8.26-23,26.71c-12.65,14.72-23,26.71-23.06,26.66s4-9.25,9-20.42,9.3-20.66,9.45-21.17c.25-.81-.61-.87-13-.87s-13.31,0-12.95-.91,24.27-45.45,27.27-50.78l1.47-2.64h14C269.26,175,270,175.07,269.56,175.88Z"/><path d="M145.1,327.82c-5.79,1.88-9.09,4.26-14.57,10.51a76.15,76.15,0,0,1-5.33,5.53,19.41,19.41,0,0,1-10,4.12l-3.15.35v21.84l3.71-.36a40.36,40.36,0,0,0,15.39-4.37,31.75,31.75,0,0,0,9.29-6.39l4.11-3.86,4.12,3.86a31.75,31.75,0,0,0,9.29,6.39c7.26,3.51,10.76,4.27,19.09,4.27s11.83-.76,19.1-4.27a31.67,31.67,0,0,0,9.24-6.34l4.11-3.86,3.76,3.25c9.24,8.07,20.21,12,31.33,11.32a38.14,38.14,0,0,0,16.55-4.37,31.4,31.4,0,0,0,9.24-6.34l4.12-3.86,3.76,3.25c9.24,8.07,20.21,12,31.33,11.32a38.14,38.14,0,0,0,16.55-4.37,31.67,31.67,0,0,0,9.24-6.34l4.12-3.86,3.75,3.25a48.83,48.83,0,0,0,14.12,8.68c3.45,1.27,10.66,2.84,13.2,2.84h1.48V348.33l-2.85-.3c-5.69-.61-12-4.68-15.43-10a17.76,17.76,0,0,1-2.95-8.38l-.36-2.53-4.57.05c-6.95,0-12.34,2.54-17.46,8-1.32,1.42-3.76,4-5.39,5.79a22.76,22.76,0,0,1-6.8,5.08c-3.66,1.82-4,1.88-9.14,1.88-5,0-5.64-.11-8.79-1.63a22.89,22.89,0,0,1-9.54-8.28,17.76,17.76,0,0,1-2.95-8.38l-.35-2.53-4.57.05c-7,0-12.34,2.54-17.47,8-1.32,1.42-3.76,4-5.38,5.79a22.93,22.93,0,0,1-6.81,5.08c-3.66,1.82-4,1.88-9.14,1.88-5,0-5.64-.11-8.78-1.63a22.91,22.91,0,0,1-9.55-8.28,17.76,17.76,0,0,1-2.95-8.38l-.35-2.53-4.57.05c-7,0-12.34,2.54-17.47,8-1.32,1.42-3.86,4.16-5.64,6a23,23,0,0,1-6.55,5.08c-3.15,1.52-3.65,1.63-8.93,1.63s-5.79-.11-9-1.63a23,23,0,0,1-9.55-8.28,17.64,17.64,0,0,1-2.94-8.38l-.36-2.53L151.7,327A18.83,18.83,0,0,0,145.1,327.82Z"/></svg>