<svg id="Слой_1" data-name="Слой 1" xmlns="http://www.w3.org/2000/svg" viewBox="0 0 481.52 481.52"><defs><style>.cls-1{fill:none;stroke:#000;stroke-linecap:round;stroke-miterlimit:10;stroke-width:5px;}</style></defs><path class="cls-1" d="M249.93,169.82h88.5a20.47,20.47,0,0,1,20.46,20.47V289a20.46,20.46,0,0,1-20.46,20.47H250.37"/><path class="cls-1" d="M163.61,309.46H133.9c-3.79,0-6.87-9.16-6.87-20.47v-98.7c0-11.3,3.08-20.47,6.87-20.47h29.56"/><circle cx="302.58" cy="239.64" r="9.27"/><circle cx="253.38" cy="239.64" r="9.27"/><line class="cls-1" x1="207.51" y1="156.29" x2="207.51" y2="321.23"/><path class="cls-1" d="M247.9,347.12a32.94,32.94,0,0,1-7.81.94,32.59,32.59,0,0,1-32.58-32.59c0-.82,0-1.63.08-2.43"/><path class="cls-1" d="M167.16,347.12a32.62,32.62,0,0,0,40.39-31.65q0-1.23-.09-2.43"/><path class="cls-1" d="M167.16,131.75a32.62,32.62,0,0,1,40.39,31.65q0,1.22-.09,2.43"/><path class="cls-1" d="M247.9,131.75a32.62,32.62,0,0,0-40.39,31.65c0,.81,0,1.62.08,2.43"/></svg>