<svg id="Слой_1" data-name="Слой 1" xmlns="http://www.w3.org/2000/svg" viewBox="0 0 481.52 481.52"><defs><style>.cls-1{fill:none;stroke:#000;stroke-linecap:round;stroke-miterlimit:10;stroke-width:5px;}</style></defs><polyline class="cls-1" points="262.73 227.77 289.08 201.14 314.01 226.23"/><line class="cls-1" x1="289.08" y1="201.14" x2="289.08" y2="261.38"/><path d="M200.27,168.5c3.34,0,6.68,0,10,0,.89,0,1.19.28,1.16,1.16,0,1.81,0,3.63,0,5.44,0,.7-.17,1-.95,1q-10.29,0-20.58,0c-.8,0-1-.29-1-1.07,0-1.81.05-3.62,0-5.43,0-.86.34-1.11,1.14-1.11C193.45,168.52,196.86,168.5,200.27,168.5Z"/><path d="M200.25,304.11c3.34,0,6.68,0,10,0,1,0,1.22.31,1.19,1.22-.07,1.78-.05,3.56,0,5.34,0,.76-.23,1.07-1,1.06q-10.17,0-20.36,0c-.89,0-1.19-.33-1.17-1.19.05-1.78.06-3.56,0-5.34,0-.88.34-1.08,1.13-1.08C193.42,304.12,196.84,304.11,200.25,304.11Z"/><rect class="cls-1" x="169.74" y="131.47" width="60.85" height="217.25" rx="30.43"/></svg>