<svg id="Слой_1" data-name="Слой 1" xmlns="http://www.w3.org/2000/svg" viewBox="0 0 481.52 481.52"><defs><style>.cls-1,.cls-2{fill:none;stroke:#000;stroke-miterlimit:10;stroke-width:5px;}.cls-1{stroke-linecap:round;}</style></defs><rect class="cls-1" x="126.37" y="122.38" width="230.78" height="235.7" rx="14.97"/><circle class="cls-1" cx="241.76" cy="240.22" r="51.88"/><polyline class="cls-1" points="245.5 209.15 226.28 243.19 257.23 243.19 245.07 271.3"/><polyline class="cls-2" points="199.53 270.36 157.63 270.36 151.25 277 151.25 318.64 165.24 332.26 208 332.26 214.82 326.05 214.82 284.65"/><polyline class="cls-1" points="195.38 268.88 157.76 268.88 150.34 261.6 150.34 221.18 158.4 213.27 198.43 213.27 158.4 213.27 152.07 206.63 152.07 164.99 165.95 151.37 208.38 151.37 215.15 157.58 215.15 195.2"/><polyline class="cls-1" points="287.98 213.27 321.88 213.27 328.09 206.63 328.09 164.99 314.47 151.37 272.83 151.37 266.19 157.58 266.19 192.87"/><polyline class="cls-1" points="289.26 214.75 321.83 214.75 329 222.03 329 262.45 321.21 270.36 282.53 270.36 321.21 270.36 327.33 277 327.33 318.64 313.92 332.26 272.91 332.26 266.37 326.05 266.37 288.43"/><polyline class="cls-1" points="264.37 192.35 264.37 156.69 258.63 151.37 224.19 151.37 214.82 160.06 214.82 193.6"/><polyline class="cls-1" points="214.9 289.29 214.9 326.68 220.56 332.26 259.05 332.26 267.37 323.15 267.37 287.98"/></svg>