<?xml version="1.0" standalone="no"?>
<!DOCTYPE svg PUBLIC "-//W3C//DTD SVG 20010904//EN"
 "http://www.w3.org/TR/2001/REC-SVG-20010904/DTD/svg10.dtd">
<svg version="1.0" xmlns="http://www.w3.org/2000/svg"
 width="512.000000pt" height="512.000000pt" viewBox="0 0 512.000000 512.000000"
 preserveAspectRatio="xMidYMid meet">

<g transform="translate(0.000000,512.000000) scale(0.100000,-0.100000)"
fill="#000000" stroke="none">
<path d="M2345 4694 c-212 -22 -340 -95 -411 -236 -15 -29 -119 -327 -231
-663 l-203 -610 206 -206 207 -207 58 48 c171 142 364 212 589 212 225 0 418
-70 589 -212 l58 -48 207 207 206 206 -203 610 c-112 336 -216 634 -231 664
-37 73 -105 142 -168 173 -98 47 -183 60 -418 63 -118 2 -233 1 -255 -1z"/>
<path d="M2410 2715 c-179 -50 -321 -169 -395 -330 -44 -95 -58 -163 -58 -271
2 -162 70 -313 194 -428 72 -67 127 -100 222 -134 61 -22 89 -26 187 -26 99 0
125 4 188 26 106 38 175 83 251 165 109 115 164 252 164 408 0 45 -6 105 -12
135 -18 79 -83 207 -136 267 -57 65 -173 144 -256 173 -84 30 -268 37 -349 15z"/>
<path d="M755 2114 c-468 -528 -470 -530 -517 -598 -122 -176 -101 -334 88
-665 129 -227 234 -348 344 -400 49 -23 67 -26 165 -26 96 1 151 9 435 68 179
38 447 93 595 123 149 30 279 58 290 63 16 7 33 58 94 285 40 153 72 279 70
281 -2 1 -41 17 -86 35 -152 58 -314 183 -409 316 -59 82 -119 212 -144 309
-28 109 -36 268 -17 370 8 44 12 83 8 86 -7 8 -532 149 -552 149 -8 -1 -171
-179 -364 -396z"/>
<path d="M3710 2436 c-146 -39 -265 -76 -265 -81 0 -6 7 -50 14 -100 40 -265
-50 -550 -238 -749 -101 -106 -213 -182 -346 -231 -38 -15 -72 -28 -74 -30 -5
-6 140 -548 149 -559 5 -4 280 -65 612 -133 556 -116 612 -126 718 -127 111
-1 118 0 182 32 106 52 210 176 343 412 99 174 155 328 155 425 0 96 -51 201
-159 325 -373 429 -788 885 -805 887 -12 1 -140 -31 -286 -71z"/>
</g>
</svg>
