<?xml version="1.0" encoding="utf-8"?>
<!-- Generator: Adobe Illustrator 16.0.0, SVG Export Plug-In . SVG Version: 6.00 Build 0)  -->
<!DOCTYPE svg PUBLIC "-//W3C//DTD SVG 1.1 Tiny//EN" "http://www.w3.org/Graphics/SVG/1.1/DTD/svg11-tiny.dtd">
<svg version="1.1" baseProfile="tiny" id="Layer_1" xmlns="http://www.w3.org/2000/svg" xmlns:xlink="http://www.w3.org/1999/xlink"
	 x="0px" y="0px" width="24px" height="24px" viewBox="0 0 24 24" xml:space="preserve">
<g>
	<path d="M12,5.4c1.323,0,2.4-1.077,2.4-2.4S13.323,0.6,12,0.6S9.6,1.677,9.6,3S10.677,5.4,12,5.4z M12,1.4
		c0.882,0,1.6,0.718,1.6,1.6S12.882,4.6,12,4.6S10.4,3.882,10.4,3S11.118,1.4,12,1.4z"/>
	<path d="M12,18.6c-1.323,0-2.4,1.077-2.4,2.4s1.077,2.4,2.4,2.4s2.4-1.077,2.4-2.4S13.323,18.6,12,18.6z M12,22.6
		c-0.882,0-1.6-0.718-1.6-1.6s0.718-1.6,1.6-1.6s1.6,0.718,1.6,1.6S12.882,22.6,12,22.6z"/>
	<path d="M3,17.379c0.221,0,0.4-0.179,0.4-0.4V11.4h8.2v5.58c0,0.221,0.179,0.4,0.4,0.4s0.4-0.179,0.4-0.4V11.4h8.2v5.58
		c0,0.221,0.179,0.4,0.4,0.4s0.4-0.179,0.4-0.4V11c0-0.221-0.179-0.4-0.4-0.4h-8.6V7.016c0-0.221-0.179-0.4-0.4-0.4
		s-0.4,0.179-0.4,0.4V10.6H3c-0.221,0-0.4,0.179-0.4,0.4v5.979C2.6,17.2,2.779,17.379,3,17.379z"/>
	<path d="M3,18.6c-1.323,0-2.4,1.077-2.4,2.4s1.077,2.4,2.4,2.4s2.4-1.077,2.4-2.4S4.323,18.6,3,18.6z M3,22.6
		c-0.882,0-1.6-0.718-1.6-1.6s0.718-1.6,1.6-1.6s1.6,0.718,1.6,1.6S3.882,22.6,3,22.6z"/>
	<path d="M21,18.6c-1.323,0-2.4,1.077-2.4,2.4s1.077,2.4,2.4,2.4s2.4-1.077,2.4-2.4S22.323,18.6,21,18.6z M21,22.6
		c-0.882,0-1.6-0.718-1.6-1.6s0.718-1.6,1.6-1.6s1.6,0.718,1.6,1.6S21.882,22.6,21,22.6z"/>
</g>
</svg>
