<svg id="Слой_1" data-name="Слой 1" xmlns="http://www.w3.org/2000/svg" viewBox="0 0 481.52 481.52"><path d="M240.35,120.53c-1.68.7-2.48,2.06-5.11,8.39-3,7.36-5.34,11.63-7.55,13.92-1.5,1.64-1.68,1.69-3.84,1.41-3.94-.52-9-2.06-15.1-4.55-6.7-2.76-8.76-3-10.55-1.36-2.06,2-2,3.38.61,10.36,2.58,6.8,4.74,14.68,4.74,17.07,0,1.36-.33,1.69-3.61,3.7s-16.13,8.3-16.93,8.3c-1.26.1-3.37,3-3.37,4.74,0,2.39,1.69,3.94,6.42,6,9.47,4.08,10.32,3.75-9.47,3.8H159.24l-2.81,1.36a12.11,12.11,0,0,0-6.28,5.9c-.52,1-7,24.15-14.44,51.34l-13.46,49.47,0,8c0,7.17.1,8.2,1,10.12a14.73,14.73,0,0,0,6.94,6.8l2.39,1.13h85.61l-.14,2.44-.14,2.48-6.8.23c-8,.29-9.94.94-13.32,4.74-3,3.38-3.56,5.39-3.56,13.64v6.94l1.36,1.5,1.36,1.55H287.1l1.36-1.55,1.36-1.5v-6.94c0-8.25-.52-10.26-3.57-13.64-3.37-3.8-5.29-4.45-13.31-4.74l-6.8-.23-.14-2.44-.14-2.48,43.51-.1,43.51-.14,1.92-1a14.6,14.6,0,0,0,6.56-8c.57-2,.71-4.12.57-9.66l-.24-7.12-13.45-49.47c-7.41-27.19-13.88-50.3-14.45-51.34a12.28,12.28,0,0,0-5.76-5.76l-2.35-1.27-17.58-.23-17.58-.24,3.05-1.45c1.69-.8,4.45-2.16,6.23-3,4.32-2.07,5.54-4.55,3.75-7.55-.56-1-2-1.88-5.25-3.33-6.33-2.72-13.08-6.24-15.42-8-2-1.41-2-1.46-2-4.36,0-3.85,1.26-8.58,4.22-16,2.67-6.7,2.76-8.11.65-10.08-1.4-1.31-4.45-1.5-6.28-.33s-9.7,4.41-13.41,5.54a18.87,18.87,0,0,1-5.39.84c-1.92-.14-2.2-.33-4.55-3.42a93.36,93.36,0,0,1-6.23-10.79,68.88,68.88,0,0,0-4.78-8.53A4.74,4.74,0,0,0,240.35,120.53Zm4.5,20.67c3.29,5.63,6.9,9.94,9.66,11.58,2,1.17,2.63,1.32,6.24,1.22a30.11,30.11,0,0,0,8.16-1.26,22.08,22.08,0,0,1,4.36-1.08,17.62,17.62,0,0,1-.8,3.89c-1.41,5.48-1.69,10.64-.75,14,1.22,4.08,5.11,7.6,13,11.58l2.9,1.45-5.11,2.82a67.83,67.83,0,0,0-7.64,4.87c-1.87,1.55-2.91,2.07-4.13,2.07s-1.54-.14-1.36-.85a35.26,35.26,0,0,0,.71-15.19,29.72,29.72,0,0,0-7.93-14,28.3,28.3,0,0,0-40.32,0,29.79,29.79,0,0,0-7.92,14,35.41,35.41,0,0,0,.7,15.19c.19.71,0,.85-1.4.85s-2.3-.47-4.18-2a61.07,61.07,0,0,0-10.26-6.47,8.33,8.33,0,0,1-2.25-1.31,26,26,0,0,1,4.45-2.58c6.1-3.24,10.17-6.28,11.25-8.53,1.6-3.29.89-10.93-1.69-18.34-.79-2.39-.79-2.57,0-2.25.42.14,3.19.94,6.09,1.69,9.61,2.49,14.21,1.64,18.48-3.37,2.2-2.63,6.93-10.46,6.93-11.54,0-.33.1-.61.19-.61A42.64,42.64,0,0,1,244.85,141.2Zm1.5,22.74a18,18,0,0,1,9.05,5.11,18.79,18.79,0,0,1,4.36,20.58l-1,2.68H225.26l-1-2.68a18.81,18.81,0,0,1,4.37-20.58C233.55,164.13,240,162.25,246.35,163.94ZM324,202.62a7.07,7.07,0,0,1,1.5,1.13c0,.14,6,22.41,13.36,49.51l13.36,49.27v6.24c0,5.72-.09,6.28-1,7.13s-3.52.89-108.21,1c-58.94,0-107.65,0-108.26-.14a5.12,5.12,0,0,1-2-1.18c-.84-.84-.94-1.59-.94-7v-6.09l13.37-49.28c7.36-27.1,13.36-49.37,13.36-49.46a6.63,6.63,0,0,1,1.55-1.13c1.5-.94,2.58-.94,81.9-.94S322.4,201.68,324,202.62ZM256.53,332.35c.23,5.53.28,5.82,1.55,7l1.26,1.32,9.14.23,9.15.24,1.26,1.31c1.17,1.17,1.32,1.59,1.32,4.69v3.37H203.78v-3.37c0-3.1.14-3.52,1.32-4.69l1.26-1.31,9.19-.24,9.19-.23,1.36-1.55c1.31-1.5,1.36-1.64,1.36-6.8a25.77,25.77,0,0,1,.33-5.62c.19-.19,6.66-.29,14.39-.24l14.11.14Z"/><path d="M187.23,211.44c-20.58.09-20.53.09-21.61,2.81-.24.7-4.83,19.74-10.13,42.38q-9.7,41.14-9.33,42.29a5.72,5.72,0,0,0,1.69,2.39l1.41,1.18H334.73l1.41-1.18a5.72,5.72,0,0,0,1.69-2.39q.35-1.19-9.33-42.29c-5.3-22.64-9.9-41.72-10.18-42.43-1.12-2.86,2.44-2.72-57.38-2.81C230.79,211.34,197.64,211.34,187.23,211.44Zm13.32,10.26c-.1.47-.89,6.9-1.74,14.3l-1.54,13.51h-30.2l.56-2.49c.33-1.31,1.83-7.78,3.38-14.3l2.77-11.81h13.5C199.94,220.91,200.78,221,200.55,221.7Zm36.76,13.51v14.3H206.83l.24-1.79c.42-2.95,3-25.41,3-26.11s2-.7,13.6-.7h13.6Zm36.57-13.6c0,.7,2.62,23.16,3,26.11l.24,1.79H246.68v-28.6h13.6C271.91,220.91,273.88,221,273.88,221.61ZM313,232.72c1.54,6.52,3,13,3.37,14.3l.57,2.49h-30.2L285.18,236c-.85-7.4-1.65-13.83-1.74-14.3-.23-.75.61-.79,13.27-.79h13.5Zm-117.12,28.6c-.14,1.13-1,8.44-1.92,16.32s-1.78,14.58-1.88,14.86c-.14.47-4.08.61-17.58.61-15,0-17.35-.09-17.35-.7,0-.38,1.69-7.88,3.75-16.65s3.75-16,3.75-16.17,7.08-.24,15.76-.24h15.75Zm41.35,14.77-.14,16.78-17.3.15c-9.56,0-17.49,0-17.63-.24s3.33-32.49,3.71-33.33c0-.05,7.12-.1,15.75-.1h15.71Zm43-.09c1.08,9,1.78,16.55,1.6,16.78s-8.07.28-17.63.24l-17.3-.15-.14-16.78-.1-16.74,15.8.1,15.8.14Zm39.1-16.41c0,.14,1.69,7.4,3.75,16.17s3.76,16.27,3.76,16.65c0,.61-2.3.7-17.35.7-13.5,0-17.44-.14-17.58-.61-.1-.28-.94-7-1.88-14.86s-1.78-15.19-1.92-16.32l-.28-2H303.6C312.27,259.35,319.35,259.45,319.35,259.59Z"/></svg>