<svg id="Слой_1" data-name="Слой 1" xmlns="http://www.w3.org/2000/svg" viewBox="0 0 481.52 481.52"><path d="M159.77,154.59c-48.09,3.68-84,46-79.33,93.34,3.93,39.15,32.5,69.95,71.41,76.92,5.89,1.07,12.35,1.14,90.29,1.14,93.71,0,89.27.19,103.21-4.44,23.76-8,43.66-26.55,52.59-49.17a85.79,85.79,0,0,0-52.59-113.6c-13.68-4.63-9.57-4.44-98.78-4.57C202.47,154.15,163.44,154.34,159.77,154.59ZM335,175.38A69.38,69.38,0,0,1,358.85,187c19.13,14.12,29.46,39.72,25.6,63.23C380,277.45,361.38,297.66,334,305.2c-3.23.89-6.53,1.14-15.52,1.14-14.2,0-20.34-1.45-31.37-7.41C262,285.5,248,257.49,252.53,230c4.5-27,24.33-48.66,50.12-54.68,6.9-1.64,7-1.64,17.74-1.39C328.05,174.11,331.6,174.43,335,175.38Z"/></svg>