<svg id="Слой_1" data-name="Слой 1" xmlns="http://www.w3.org/2000/svg" viewBox="0 0 481.52 481.52"><defs><style>.cls-1{fill:none;stroke:#000;stroke-miterlimit:10;stroke-width:5px;}</style></defs><ellipse class="cls-1" cx="242.09" cy="169.27" rx="78.44" ry="43.69"/><path class="cls-1" d="M309.57,288.63c7,6.53,11,14.15,11,22.29,0,24.13-35.12,43.69-78.44,43.69s-78.44-19.56-78.44-43.69c0-9.88,5.89-19,15.81-26.31"/><path class="cls-1" d="M285.28,274.45a80.05,80.05,0,0,1,17.84,9"/><path class="cls-1" d="M239.34,267.26c.91,0,1.83,0,2.75,0a136.35,136.35,0,0,1,24.84,2.24"/><path class="cls-1" d="M196,275.58a113.31,113.31,0,0,1,25.43-6.81"/><line class="cls-1" x1="320.53" y1="169.27" x2="320.53" y2="310.92"/><line class="cls-1" x1="163.65" y1="169.27" x2="163.65" y2="310.92"/></svg>