<svg id="Слой_1" data-name="Слой 1" xmlns="http://www.w3.org/2000/svg" viewBox="0 0 481.52 481.52"><defs><style>.cls-1,.cls-2{fill:none;stroke:#000;stroke-miterlimit:10;stroke-width:5px;}.cls-1{stroke-linecap:round;}</style></defs><line class="cls-1" x1="325.61" y1="146.85" x2="364.3" y2="146.85"/><line class="cls-1" x1="119.88" y1="146.85" x2="158.57" y2="146.85"/><line class="cls-1" x1="139.22" y1="127.5" x2="139.22" y2="166.2"/><rect class="cls-2" x="208.86" y="122.24" width="65.24" height="62.7" rx="4.26"/><path class="cls-2" d="M183.17,210V154.52a5.67,5.67,0,0,1,5.67-5.67H293.23a5.67,5.67,0,0,1,5.67,5.67v56.85"/><rect class="cls-2" x="166.77" y="209.59" width="31.48" height="121.04" rx="8.55"/><rect class="cls-2" x="282.49" y="209.59" width="31.48" height="121.04" rx="8.55"/><path class="cls-2" d="M314.64,239.3h39.95a2.83,2.83,0,0,1,2.83,2.83v10.8"/><line class="cls-2" x1="197.91" y1="239.3" x2="284.38" y2="239.3"/><path class="cls-2" d="M125.53,252.93v-10.8a2.84,2.84,0,0,1,2.84-2.83H169"/><path class="cls-2" d="M138.39,274.77v69a14.29,14.29,0,0,0,14.41,14.17H330a14.29,14.29,0,0,0,14.41-14.17v-72.1"/><line class="cls-2" x1="138.83" y1="292.06" x2="168.32" y2="292.06"/><line class="cls-2" x1="196.92" y1="292.06" x2="285.59" y2="292.06"/><line class="cls-2" x1="314.19" y1="292.06" x2="344.12" y2="292.06"/><path class="cls-2" d="M138.39,276.29c-.17-3.49.42-7.31-2.24-8.64-6.86-3.43-10.62-6.6-10.62-14.72"/><path class="cls-2" d="M344.45,276.29c.17-3.49-.41-7.31,2.25-8.64,6.85-3.43,10.61-6.6,10.61-14.72"/></svg>