<svg id="Слой_1" data-name="Слой 1" xmlns="http://www.w3.org/2000/svg" viewBox="0 0 237.82 240.7"><defs><style>.cls-1,.cls-2{fill:none;stroke:#000;stroke-miterlimit:10;stroke-width:5px;}.cls-1{stroke-linecap:round;}</style></defs><line class="cls-1" x1="196.62" y1="30.11" x2="235.32" y2="30.11"/><line class="cls-1" x1="2.5" y1="30.11" x2="41.2" y2="30.11"/><line class="cls-1" x1="21.85" y1="10.76" x2="21.85" y2="49.46"/><rect class="cls-2" x="86.21" y="2.5" width="65.48" height="62.86" rx="4.26"/><path class="cls-2" d="M60.43,90.51V34.85a5.68,5.68,0,0,1,5.69-5.68H170.88a5.68,5.68,0,0,1,5.69,5.68v57"/><rect class="cls-2" x="43.96" y="90.07" width="31.6" height="121.35" rx="8.55"/><rect class="cls-2" x="160.11" y="90.07" width="31.6" height="121.35" rx="8.55"/><path class="cls-2" d="M192.37,119.85h40.1a2.85,2.85,0,0,1,2.85,2.84v10.83"/><line class="cls-2" x1="75.22" y1="119.85" x2="162" y2="119.85"/><path class="cls-2" d="M2.58,133.52V122.69a2.84,2.84,0,0,1,2.84-2.84H46.19"/><path class="cls-2" d="M15.48,155.41v69.17A14.34,14.34,0,0,0,30,238.79H207.83a14.34,14.34,0,0,0,14.47-14.21V152.3"/><line class="cls-2" x1="15.93" y1="172.74" x2="45.52" y2="172.74"/><line class="cls-2" x1="74.22" y1="172.74" x2="160.59" y2="172.74"/><line class="cls-2" x1="191.93" y1="172.74" x2="221.97" y2="172.74"/><path class="cls-2" d="M15.48,156.93c-.17-3.5.42-7.33-2.25-8.66-6.88-3.44-10.65-6.62-10.65-14.75"/><path class="cls-2" d="M222.3,156.93c.17-3.5-.42-7.33,2.25-8.66,6.88-3.44,10.65-6.62,10.65-14.75"/></svg>