<svg id="Слой_1" data-name="Слой 1" xmlns="http://www.w3.org/2000/svg" viewBox="0 0 481.52 481.52"><path d="M242.32,123a10.79,10.79,0,0,0-5.3,5.94c-.27,1-2.34,11.89-4.6,24.32-4.28,23.72-4.33,24.41-2.63,27.68,1.29,2.53,5.35,5.25,7.74,5.25.83,0,.88.46.88,6.4V199l-2.4.69a20.23,20.23,0,0,0-12.25,10.77c-1.61,3.32-1.7,3.69-1.7,8.11a38.1,38.1,0,0,0,.37,6.26l.32,1.61-5.62,3.18c-4.47,2.49-5.76,3-6.36,2.63-4.46-3.18-11.19-4-15.33-1.85-2,1.06-34.68,19.9-36.34,21-5.8,3.73-5.52,12.66.46,16.16,3.87,2.31,4.7,2.12,26.81-5.8,27.35-9.76,25.51-9,27.58-11.37,2.35-2.68,3-5.3,2.35-9a8.74,8.74,0,0,1-.23-3c.14-.18,2.49-1.57,5.2-3.13l4.89-2.81,2.21,1.89c1.7,1.47,2.21,2.21,2.21,3.27,0,.73-.65,15.1-1.48,31.91-1.06,22-1.38,30.72-1,31.32a5.41,5.41,0,0,0,1.7,1.38,3.25,3.25,0,0,0,4.29-1.75c.32-.69,1-11.51,1.75-26.48.69-14,1.38-27.4,1.52-29.94l.27-4.6h4.52c4.23,0,4.56,0,4.56.92,0,.51,1.24,25.37,2.76,55.26s2.76,54.58,2.76,54.9-2.21.6-10.13.6H232V350c0-.55.41-8.75.92-18.24.6-11.7.74-17.45.46-18.05a3.42,3.42,0,0,0-5.43-.74c-1,1.06-1.06,1.84-1.94,18.79-.51,9.72-.92,18.05-.92,18.47,0,.78-1.29.83-20.68.83-20.17,0-20.68,0-21.87,1a3,3,0,0,0-.05,4.79l1.11,1.15H300.62l1.11-1.15a3,3,0,0,0,0-4.6l-1.11-1.15H279.85c-17.22,0-20.72-.1-20.72-.65,0-.32-1.24-25.14-2.76-55.08s-2.77-55.54-2.77-56.83c0-2.21.1-2.44,2.21-4.23l2.17-1.89,5.66,3.22c5.67,3.23,5.71,3.27,5.44,4.7-.69,3.59,1.38,9.12,4.51,12.11,2.86,2.76,38.27,23,40.85,23.4a9.13,9.13,0,0,0,8-2.72,9,9,0,0,0,1.29-11.79c-1.52-2.3-36-31.59-38.55-32.79-3.64-1.66-7.88-.78-11.47,2.35l-1.7,1.52-2.17-1.24c-1.19-.65-3.59-2-5.29-2.95l-3.13-1.71.36-1.61a43.09,43.09,0,0,0,.37-6.22c0-4.19-.14-4.88-1.47-7.73-2.58-5.39-7.74-10-12.9-11.33l-2-.55V185.82l2.49-1.38a15.72,15.72,0,0,0,6.4-7.32c1-2.22,1-2.4,1-25v-22.8l-1.16-2.07C252.08,123,246.56,121,242.32,123Zm5.57,6.73c.83.64.88,1.42.88,22.24,0,24.27,0,23.9-3.5,26.25-3.32,2.21-8.61,1.7-9.58-.92-.55-1.43,7.55-46.24,8.61-47.43A2.65,2.65,0,0,1,247.89,129.73Zm.14,77.41a14.7,14.7,0,0,1,6.13,6.36c1.52,2.76,1.52,8.93,0,11.69a12.76,12.76,0,0,1-12.07,7.28c-5.76,0-9.9-2.72-12.34-8-1-2.16-1.11-2.94-.92-6,.23-3.87.92-5.57,3.45-8.38A13.23,13.23,0,0,1,248,207.14Zm50.7,41.27c18.47,15.65,19.81,16.85,19.81,18a3.45,3.45,0,0,1-2.67,2.67c-.69,0-31.5-17.5-36.15-20.54a7.06,7.06,0,0,1-3.55-6.54c0-4.09,2.26-7.46,5-7.46C282.16,234.54,286.25,237.77,298.73,248.41ZM204.56,236.8c4.65,2.16,6.77,7.92,3.54,9.67-2.58,1.38-43.7,15.66-44.39,15.43a3.81,3.81,0,0,1-1.57-1.34c-1.38-2.12-.6-2.71,17.69-13.21,9.53-5.48,18.1-10.32,19-10.69A6.1,6.1,0,0,1,204.56,236.8Z"/><path d="M240.06,216.63a3.32,3.32,0,1,0,4.06,0,2.61,2.61,0,0,0-4.06,0Z"/><path d="M200,132C189.41,137.19,181.76,142.85,173,152a93.78,93.78,0,0,0-25.56,52.73c-1.7,12,0,34.63,2.86,37.76,1,1.16,3.91,1.11,5-.09.92-1,.83-2.85-.51-9.21a106.65,106.65,0,0,1-1-12.89c-.28-10.37.27-16,2.44-24.5a88.87,88.87,0,0,1,36.84-51.86c3.78-2.53,13.86-7.92,14.83-7.92s2.39-2.21,2.39-3.55a3.7,3.7,0,0,0-3.4-3.36A44.44,44.44,0,0,0,200,132Z"/><path d="M274.88,130.14a3.37,3.37,0,0,0,.05,4.84,4.47,4.47,0,0,0,1.42,1c.88,0,10.73,5.25,14.37,7.64a88.93,88.93,0,0,1,39.15,61.9c.92,6.49.64,22.06-.46,27.63-1.34,6.36-1.43,8.2-.51,9.21,1.06,1.2,4,1.25,5,.09,2.86-3.13,4.56-25.79,2.86-37.81a96.81,96.81,0,0,0-15.43-40.38,101.37,101.37,0,0,0-29.1-27.91c-4.84-3-13.77-7.28-15.25-7.28A3.33,3.33,0,0,0,274.88,130.14Z"/><path d="M211.69,172.42a64.3,64.3,0,0,0-16.39,16.3,53,53,0,0,0-8.8,26.76c-.27,5.48-.23,5.57.83,6.31a3.81,3.81,0,0,0,4.56,0c.88-.74,1.06-1.47,1.43-6.08a50,50,0,0,1,8.29-24,58.86,58.86,0,0,1,14.32-13.72c4.38-2.77,5.34-4.05,4.56-6.13a3.46,3.46,0,0,0-3.36-2.16C216.53,169.61,214.09,170.9,211.69,172.42Z"/><path d="M265,170.12a3.44,3.44,0,0,0-1.25,4c.33.73,2.31,2.35,5.12,4.19a48.81,48.81,0,0,1,19.66,25.33,44.31,44.31,0,0,1,2.4,12.43c.32,4.15.5,4.93,1.38,5.62a3.81,3.81,0,0,0,4.56,0c1.06-.74,1.1-.83.83-6.31a53,53,0,0,0-8.8-26.76,64.18,64.18,0,0,0-16.4-16.3C268.16,169.65,266.64,169.15,265,170.12Z"/><path d="M180.43,286.4c-1.48,1.89-1.2,2.9,1.33,5.29,5.76,5.39,19.34,13,29.11,16.31l5.38,1.84,1.29-1a3.86,3.86,0,0,0,1.11-4.69c-.28-.56-2.07-1.43-4.74-2.35a98.63,98.63,0,0,1-25.66-13.73C183.74,284.74,182,284.37,180.43,286.4Z"/><path d="M295.83,288.19a97.81,97.81,0,0,1-25.56,13.64c-2.67.92-4.46,1.79-4.74,2.35a3.86,3.86,0,0,0,1.11,4.69l1.29,1,5.38-1.84c11.84-4,29.75-14.74,31.14-18.79.64-1.8-.88-3.73-3-3.92C300.12,285.2,299.24,285.62,295.83,288.19Z"/></svg>